<?xml version="1.0" standalone="no"?>
<!DOCTYPE svg PUBLIC "-//W3C//DTD SVG 20010904//EN"
 "http://www.w3.org/TR/2001/REC-SVG-20010904/DTD/svg10.dtd">
<svg version="1.0" xmlns="http://www.w3.org/2000/svg"
 width="1000.000000pt" height="1000.000000pt" viewBox="0 0 1000.000000 1000.000000"
 preserveAspectRatio="xMidYMid meet">

<g transform="translate(0.000000,1000.000000) scale(0.100000,-0.100000)"
fill="#000000" stroke="transparent">
<path d="M4834 7435 c-28 -14 -66 -38 -84 -55 -18 -16 -40 -30 -47 -30 -7 0
-47 -12 -88 -26 -69 -24 -79 -25 -126 -14 -132 32 -312 -48 -403 -178 -19 -28
-63 -66 -116 -100 -158 -105 -279 -248 -375 -445 -57 -118 -79 -140 -171 -178
-30 -13 -54 -26 -54 -30 0 -11 40 -19 94 -19 l50 0 -31 -32 c-116 -124 -183
-305 -183 -493 0 -141 52 -252 184 -388 23 -24 18 -84 -14 -173 -33 -89 -35
-102 -19 -86 7 6 20 12 28 12 11 0 10 -5 -5 -22 -24 -27 -3 -16 53 29 23 18
43 33 46 33 2 0 8 -15 12 -32 4 -18 9 -27 12 -20 3 8 26 12 65 12 58 0 60 -1
54 -22 -4 -13 -9 -56 -13 -96 -4 -54 -9 -72 -19 -68 -24 9 57 -111 124 -182
20 -22 25 -8 13 35 -6 21 -11 51 -11 66 l0 28 32 -36 c17 -20 41 -58 53 -83
42 -90 103 -141 213 -177 39 -13 60 -28 84 -59 57 -73 139 -166 148 -166 5 0
10 29 12 65 2 36 7 66 13 68 5 1 23 -24 40 -56 17 -32 53 -88 80 -124 l49 -66
-26 -21 c-38 -31 -79 -111 -153 -296 -36 -91 -88 -208 -114 -260 -57 -112
-179 -379 -228 -500 -34 -84 -34 -85 -14 -99 21 -13 20 -14 -11 -55 -17 -22
-36 -48 -41 -56 -13 -21 44 40 67 72 12 16 25 24 35 21 39 -13 196 -87 199
-94 2 -4 11 -5 21 -2 30 8 32 -12 4 -38 -21 -19 -25 -20 -20 -6 4 11 3 16 -3
12 -6 -3 -10 -14 -10 -24 0 -16 -78 -101 -93 -101 -4 0 -7 12 -7 27 l0 26 -25
-23 c-18 -17 -38 -24 -68 -25 -26 0 -48 -7 -59 -18 -10 -9 -27 -17 -38 -17
-25 0 -27 27 -2 34 31 10 70 50 76 79 5 19 3 26 -4 22 -5 -3 -10 -15 -10 -26
0 -34 -111 -102 -139 -84 -11 6 11 74 28 85 9 6 31 45 31 56 0 9 -45 -58 -66
-97 -20 -40 -12 -59 26 -59 16 0 30 -4 30 -10 0 -13 33 -13 64 1 20 10 28 9
41 -5 23 -22 31 -20 65 14 27 28 50 33 50 11 0 -17 -56 -64 -105 -88 -60 -31
-195 -124 -195 -135 0 -8 15 -12 83 -23 37 -6 38 -7 24 -28 -21 -32 -67 -149
-62 -157 3 -4 16 -5 30 -2 48 9 156 -44 241 -119 138 -119 211 -144 268 -89
l22 20 29 -243 c15 -133 29 -248 29 -256 1 -7 -10 -15 -24 -17 -194 -29 -201
-32 -222 -96 -13 -40 -19 -45 -71 -62 -72 -25 -66 -33 13 -15 41 9 60 18 60
29 0 8 9 34 19 56 l19 42 88 16 c123 22 122 22 130 -22 3 -20 13 -42 21 -48 8
-7 16 -33 19 -59 2 -26 9 -65 16 -86 9 -33 16 -40 45 -45 58 -11 203 1 214 17
13 21 11 67 -6 122 -12 41 -12 47 0 47 8 0 15 7 15 15 0 13 24 15 160 15 136
0 160 -2 160 -15 0 -8 7 -15 15 -15 12 0 12 -6 0 -48 -17 -54 -19 -100 -5
-122 10 -17 154 -27 215 -16 30 6 36 12 46 49 14 52 18 117 7 117 -4 0 -8 -7
-8 -15 0 -21 -43 -29 -86 -15 -23 8 -58 10 -95 6 -59 -7 -65 -4 -53 29 6 13
25 16 140 14 131 -1 160 3 149 22 -4 5 -3 18 0 29 6 19 12 20 67 14 41 -5 59
-4 55 3 -4 6 -32 14 -63 18 l-55 7 5 36 c5 30 56 456 56 466 0 2 23 6 51 9 51
6 62 11 159 66 30 17 83 40 117 52 35 11 65 24 68 28 5 9 -111 350 -179 524
-25 65 -46 121 -46 125 0 4 15 13 33 20 17 8 70 31 117 53 47 21 90 39 96 39
5 0 18 6 28 13 16 12 13 24 -48 168 -35 86 -99 227 -141 315 -42 87 -89 193
-105 234 -98 260 -180 422 -226 448 -11 6 -5 19 27 57 22 26 61 86 87 133 l47
84 7 -71 c3 -40 9 -75 12 -79 8 -7 67 55 138 145 43 54 56 64 105 78 107 31
169 89 222 206 16 35 38 72 50 83 l20 19 -6 -54 c-3 -30 -10 -62 -14 -71 -12
-23 -11 -28 4 -28 22 1 161 190 139 190 -5 0 -12 35 -15 78 -3 43 -9 86 -13
96 -6 16 -1 18 62 14 59 -3 69 -1 72 15 4 18 17 23 26 8 3 -5 22 -19 42 -30
28 -17 35 -18 31 -6 -7 18 -3 19 24 5 23 -13 23 -10 3 38 -24 57 -55 182 -48
193 3 6 27 33 52 60 60 64 118 160 137 223 20 65 19 209 -1 299 -26 118 -103
260 -181 334 -26 25 -22 49 10 59 18 6 17 8 -11 20 -21 8 -37 26 -48 51 -58
135 -79 174 -99 178 -11 2 -87 11 -170 20 -82 9 -151 18 -153 20 -2 2 69 1
157 -2 101 -4 161 -2 161 4 0 14 -78 123 -125 174 l-39 44 -90 7 c-64 5 -97
12 -115 26 -30 22 -38 68 -18 97 14 18 8 26 -89 122 -127 126 -193 164 -301
171 -41 3 -92 -1 -115 -7 -37 -10 -51 -9 -102 9 -33 11 -71 20 -86 20 -17 0
-38 12 -60 35 -72 74 -274 101 -376 50z m-1171 -1178 c-2 -71 -25 -173 -49
-219 -18 -35 -52 -37 -88 -3 -35 32 -33 65 5 134 101 180 136 203 132 88z
m2785 35 c37 -47 112 -185 112 -207 0 -23 -54 -75 -78 -75 -44 0 -78 89 -89
238 -7 97 6 107 55 44z m-2724 -108 c10 -25 7 -140 -4 -169 -8 -21 -16 -26
-38 -23 -22 2 -28 9 -30 32 -6 47 7 109 28 144 22 35 35 40 44 16z m2649 -7
c20 -30 40 -132 33 -163 -5 -19 -13 -24 -36 -24 -35 0 -44 22 -45 115 0 92 17
119 48 72z m-1863 -89 c1 -40 12 -90 34 -143 l17 -40 -21 24 c-12 13 -37 53
-57 88 -34 62 -35 65 -18 83 27 30 45 25 45 -12z m436 -49 c13 -21 148 -79
223 -94 42 -9 105 -29 141 -45 36 -15 76 -32 89 -37 23 -9 21 -10 -24 -23 -45
-13 -57 -12 -135 8 -107 28 -202 76 -255 127 -53 52 -70 75 -57 75 6 0 14 -5
18 -11z m-889 -208 c56 -95 189 -245 264 -297 l42 -29 -89 -7 -89 -8 -47 52
c-64 69 -116 195 -142 346 -3 17 -2 32 2 32 4 0 31 -40 59 -89z m413 -41 c62
-22 104 -30 153 -30 54 0 77 -5 110 -24 70 -41 149 -58 266 -58 123 0 204 15
416 79 196 59 216 61 285 29 30 -14 85 -33 123 -43 l67 -17 0 -52 0 -52 -71
36 c-69 36 -75 37 -178 37 -100 0 -110 -2 -173 -33 -46 -22 -84 -51 -120 -91
-29 -32 -71 -67 -93 -79 -22 -11 -49 -30 -60 -42 -19 -21 -17 -21 34 5 47 23
53 24 46 8 -14 -34 -25 -88 -25 -125 0 -31 -5 -40 -30 -53 -38 -20 -39 -33 -1
-27 22 3 29 -1 33 -15 5 -19 1 -20 -68 -15 -85 5 -128 -12 -122 -51 3 -22 48
-39 48 -18 0 15 87 14 132 -2 27 -9 47 -27 69 -60 40 -60 99 -111 169 -144
112 -54 282 -39 375 32 19 14 35 25 37 25 2 0 2 -33 0 -72 -6 -111 -45 -169
-173 -254 -89 -59 -170 -94 -307 -129 -208 -54 -409 -67 -613 -40 -333 44
-574 157 -663 310 -17 29 -25 63 -30 120 -3 44 -9 91 -12 104 -6 21 -5 23 17
16 39 -12 43 -11 46 10 2 13 -6 25 -25 36 -40 23 -74 99 -70 157 3 42 6 49 38
64 52 25 70 23 70 -9 0 -37 44 -131 78 -166 46 -48 73 -57 179 -57 80 0 104 4
131 20 39 24 70 72 78 123 6 36 8 38 36 32 56 -13 138 -22 138 -15 0 3 -41 33
-92 65 -50 32 -86 61 -80 63 6 2 21 -2 32 -8 38 -21 33 -2 -7 24 -48 31 -101
52 -182 70 -35 8 -67 19 -72 23 -10 10 -39 218 -39 278 0 25 3 45 8 45 4 0 45
-14 92 -30z m1251 -114 c56 -13 135 -52 157 -78 6 -8 8 -31 5 -56 l-6 -43 -31
30 c-114 110 -303 108 -418 -6 -144 -142 -108 -379 73 -478 46 -25 65 -29 134
-29 68 -1 88 3 137 27 133 65 197 217 153 363 -14 47 -14 50 8 66 12 10 25 18
29 18 16 0 41 -68 46 -125 4 -55 1 -68 -31 -130 -19 -39 -41 -89 -48 -113 -7
-24 -21 -48 -32 -53 -10 -6 -16 -17 -13 -25 7 -19 -86 -80 -147 -95 -77 -19
-195 -7 -260 26 -105 53 -175 141 -204 259 -47 190 77 386 277 440 69 19 101
19 171 2z m374 -38 c-15 -132 -26 -220 -32 -234 -10 -25 -27 -10 -55 49 l-28
57 39 55 c21 30 44 68 51 85 18 43 30 37 25 -12z m-2587 -88 c0 -22 -1 -22 -8
5 -4 17 -8 39 -8 50 0 16 2 15 8 -5 4 -14 8 -36 8 -50z m2991 11 c-12 -59 -25
-70 -15 -13 9 50 17 74 22 69 2 -2 -1 -27 -7 -56z m-744 9 c40 -17 112 -76
103 -85 -2 -3 -31 0 -64 5 -91 15 -150 12 -264 -14 -58 -13 -113 -27 -122 -31
-10 -4 -18 -3 -18 3 0 16 84 99 120 117 71 37 168 39 245 5z m-1674 -90 c5 0
9 -4 9 -8 0 -9 -109 -57 -114 -51 -5 7 -26 97 -26 113 0 11 15 6 61 -20 33
-18 65 -34 70 -34z m1361 -205 c9 -17 49 -63 88 -103 79 -78 109 -89 168 -58
60 31 132 145 132 209 0 30 10 33 60 16 l33 -12 -6 -59 c-4 -42 -14 -72 -36
-106 -30 -46 -79 -92 -101 -92 -5 0 -10 -4 -10 -10 0 -5 -7 -7 -15 -4 -8 3
-22 -2 -32 -11 -14 -14 -31 -17 -97 -13 -84 5 -118 17 -171 63 -28 24 -28 26
-6 19 l24 -6 -23 23 c-41 44 -70 119 -70 186 0 92 10 106 30 42 9 -30 24 -68
32 -84z m-220 -65 c20 -6 39 -18 42 -26 5 -13 2 -15 -16 -9 -44 13 -135 18
-142 6 -8 -13 -36 -15 -36 -2 0 13 61 41 90 41 14 0 41 -5 62 -10z m-52 -733
c0 -39 -35 -78 -93 -105 -39 -18 -59 -34 -63 -49 -8 -30 -20 -29 -28 2 -4 17
-17 27 -44 35 -59 18 -112 72 -112 115 0 19 6 20 170 20 159 0 170 -1 170 -18z
m-375 -714 c-4 -379 -10 -728 -15 -776 -7 -80 -13 -100 -69 -215 -75 -153
-201 -386 -250 -462 l-36 -55 -6 72 c-9 97 -39 157 -96 193 -85 54 -223 98
-398 127 l-50 8 65 46 c169 119 348 189 675 261 l60 13 18 55 c24 69 53 242
67 385 l10 109 -29 61 c-16 33 -58 112 -95 175 l-65 115 72 67 c83 77 85 64
-33 164 l-69 59 26 45 c52 91 149 218 173 228 55 22 52 67 45 -675z m452 675
c15 -7 34 -20 41 -28 33 -40 152 -225 152 -238 0 -13 -18 -31 -130 -129 l-35
-31 71 -66 72 -67 -42 -77 c-23 -42 -63 -116 -89 -163 -26 -47 -47 -92 -47
-99 0 -27 14 -4 136 225 43 82 57 93 62 53 25 -197 46 -294 82 -371 122 -260
400 -988 400 -1046 0 -11 -24 -25 -76 -44 -41 -16 -103 -45 -136 -65 -55 -33
-69 -36 -150 -40 -90 -5 -176 12 -240 44 -27 14 -28 16 -28 107 0 182 -34 699
-70 1052 -15 153 -25 995 -12 995 6 0 24 -6 39 -12z m-607 -17 l25 -7 -35 -22
c-46 -28 -50 -28 -50 8 0 32 10 35 60 21z m770 -21 c0 -35 0 -36 -42 -10 l-32
19 25 10 c40 16 49 13 49 -19z m-485 -53 c27 -9 41 -21 43 -34 2 -17 -1 -20
-20 -16 -19 4 -33 -7 -72 -56 -27 -34 -53 -61 -57 -61 -4 0 -6 15 -5 33 2 17
4 72 5 121 l1 90 33 -32 c18 -17 50 -38 72 -45z m264 -99 c-1 -38 -5 -68 -9
-68 -5 0 -30 27 -56 61 -39 51 -51 60 -71 56 -19 -4 -23 -1 -21 15 2 13 17 25
42 33 22 8 53 28 70 45 l31 31 7 -53 c4 -29 7 -83 7 -120z m-516 139 c-4 -7
-31 -46 -59 -87 -28 -41 -58 -89 -68 -107 -16 -32 -16 -33 11 -57 l27 -26 -17
-64 c-9 -35 -17 -78 -17 -95 0 -47 -14 -37 -35 24 -10 30 -23 55 -28 55 -13 0
-1 -43 29 -110 24 -53 25 -60 19 -175 -7 -111 -11 -127 -50 -220 -24 -55 -59
-148 -79 -205 -57 -163 -99 -260 -112 -260 -12 0 -44 12 -226 85 l-66 26 23
58 c52 127 151 344 224 491 43 85 103 220 135 300 91 231 107 255 205 323 91
61 96 64 84 44z m781 -81 c44 -34 106 -154 172 -331 20 -55 61 -145 90 -200
29 -55 75 -149 102 -210 27 -60 61 -135 75 -165 14 -30 41 -94 60 -141 l35
-87 -139 -56 c-76 -31 -140 -56 -142 -56 -3 0 -19 37 -37 83 -44 112 -117 282
-147 340 -17 33 -32 98 -50 213 l-25 165 25 57 c31 70 44 118 29 109 -5 -4
-18 -29 -28 -57 -10 -27 -21 -50 -25 -50 -3 0 -9 31 -13 69 -3 38 -10 80 -15
93 -7 18 -4 28 16 50 33 34 28 52 -40 153 -29 44 -57 86 -61 93 -9 15 57 -25
118 -72z m-555 -161 c12 -25 21 -48 21 -52 0 -3 7 -14 15 -23 13 -14 10 -28
-20 -121 -36 -110 -46 -208 -59 -569 -5 -119 -6 -125 -26 -128 l-22 -4 3 444
c4 424 5 444 24 470 28 38 40 35 64 -17z m291 -248 c1 -228 13 -506 26 -599 6
-46 6 -48 -19 -48 l-25 0 -6 153 c-17 368 -25 444 -60 553 -27 82 -31 105 -21
116 7 7 21 37 30 67 l18 55 28 -32 29 -32 0 -233z m-525 143 l30 -31 -45 -42
c-25 -23 -55 -51 -68 -61 l-22 -19 6 49 c3 27 12 73 20 102 17 59 25 59 79 2z
m739 33 c9 -28 27 -166 22 -170 -5 -5 -116 97 -116 108 0 10 71 78 82 79 4 0
9 -8 12 -17z m-734 -392 l82 -154 -7 -81 c-14 -164 -37 -300 -67 -393 -21 -68
-24 -70 -133 -88 -63 -10 -247 -63 -315 -91 -34 -14 -64 -23 -66 -21 -4 4 136
144 174 174 18 14 28 42 47 139 17 85 44 169 91 285 59 147 67 174 74 264 5
55 9 113 10 130 0 28 1 28 14 10 7 -11 50 -89 96 -174z m-331 -627 c-18 -22
-22 -11 -7 22 10 21 14 24 16 10 2 -9 -2 -24 -9 -32z m-255 -189 c-7 -16 -54
-21 -54 -6 0 5 10 12 23 14 12 2 25 5 29 6 4 0 5 -6 2 -14z m988 -152 l41 -88
3 -275 c2 -250 15 -510 31 -632 l6 -48 -153 0 -153 0 6 48 c16 124 29 382 31
633 l2 276 42 86 c39 82 43 87 72 87 30 0 34 -5 72 -87z m-962 -124 c41 -11
109 -36 150 -57 108 -54 140 -109 140 -244 l0 -68 -35 0 c-49 0 -97 27 -184
104 -79 70 -171 123 -233 132 -21 4 -38 9 -38 12 0 3 16 38 35 79 40 83 22 78
165 42z m694 -975 c11 -30 6 -32 -66 -31 -40 1 -89 -2 -108 -6 -40 -9 -54 -2
-64 31 -7 22 -7 22 112 22 100 0 121 -3 126 -16z m-34 -114 c17 -5 -1 -8 -55
-8 -57 0 -71 3 -50 8 39 10 74 10 105 0z m565 0 c21 -5 7 -8 -50 -8 -54 0 -72
3 -55 8 31 10 66 10 105 0z"/>
<!-- <path d="M4541 5536 c4 -4 35 -14 70 -23 35 -8 93 -29 128 -44 35 -16 66 -27
68 -25 9 8 -75 57 -119 70 -51 16 -156 31 -147 22z"/>
<path d="M4200 5060 c0 -5 5 -10 10 -10 6 0 10 5 10 10 0 6 -4 10 -10 10 -5 0
-10 -4 -10 -10z"/>
<path d="M4240 5050 c0 -5 7 -10 15 -10 8 0 15 5 15 10 0 6 -7 10 -15 10 -8 0
-15 -4 -15 -10z"/>
<path d="M4990 5010 c0 -5 5 -10 10 -10 6 0 10 5 10 10 0 6 -4 10 -10 10 -5 0
-10 -4 -10 -10z"/>
<path d="M3407 5135 c-31 -38 -31 -44 0 -17 16 14 38 52 30 52 -1 0 -15 -16
-30 -35z"/>
<path d="M6575 5130 c3 -5 16 -15 28 -21 l22 -11 -22 21 c-23 22 -39 28 -28
11z"/>
<path d="M5988 3110 c11 -11 33 -40 50 -63 25 -35 28 -45 18 -59 -10 -14 -19
-15 -53 -6 -33 8 -48 7 -77 -7 -19 -9 -38 -26 -41 -36 -6 -16 -9 -18 -21 -8
-13 11 -14 9 -9 -14 5 -17 2 -33 -5 -42 -9 -10 -9 -15 -1 -15 6 0 11 5 11 10
0 20 16 9 26 -19 11 -29 35 -41 144 -73 31 -9 46 -19 48 -33 6 -30 22 -45 49
-45 22 0 87 -40 105 -65 4 -5 8 -20 8 -31 0 -29 17 -34 105 -34 92 0 103 4
110 44 5 23 17 37 45 54 55 31 82 72 124 192 l36 105 -30 26 c-45 39 -131 54
-295 54 -104 -1 -155 -5 -199 -19 -34 -10 -61 -14 -65 -8 -25 37 -87 112 -93
112 -5 0 0 -9 10 -20z m497 -90 c80 -12 139 -37 143 -62 4 -19 -36 -43 -83
-50 -16 -3 -25 -3 -18 -1 16 6 25 35 15 45 -12 12 -79 28 -117 27 l-30 0 28
-15 c24 -13 26 -17 15 -37 -7 -12 -11 -26 -10 -31 2 -5 -49 -6 -115 -3 -161 8
-203 16 -235 45 -24 20 -23 29 6 47 57 38 258 55 401 35z m-433 -89 c30 -34
28 -61 -4 -61 -15 0 -19 5 -15 20 7 25 -19 52 -46 48 -29 -4 -43 -32 -32 -63
8 -21 26 -33 88 -57 76 -29 104 -54 93 -84 -9 -24 -32 -15 -47 18 -14 33 -24
38 -106 58 -61 15 -87 40 -87 85 0 79 98 101 156 36z m-71 -44 c-8 -8 -11 -7
-11 4 0 20 13 34 18 19 3 -7 -1 -17 -7 -23z m21 -19 c-10 -10 -10 -8 -2 37 1
6 4 2 7 -9 3 -10 0 -23 -5 -28z m588 -38 c-37 -125 -114 -181 -245 -181 -66 0
-146 24 -171 52 -10 12 -19 35 -20 52 -1 20 -10 37 -28 49 -23 17 -46 81 -34
93 2 3 20 0 39 -5 80 -24 236 -31 340 -15 55 8 108 19 117 24 9 5 18 8 20 6 2
-2 -6 -35 -18 -75z m-510 10 c0 -5 -5 -10 -11 -10 -5 0 -7 5 -4 10 3 6 8 10
11 10 2 0 4 -4 4 -10z m358 -227 c-3 -15 -17 -18 -87 -21 -81 -3 -100 3 -101
31 0 4 43 7 96 7 86 0 95 -2 92 -17z"/>
<path d="M5750 2984 c0 -10 5 -26 10 -34 8 -11 9 -7 4 15 -8 37 -14 45 -14 19z"/>
<path d="M4179 2972 c-29 -34 -31 -47 -3 -20 15 15 26 30 23 32 -3 3 -12 -3
-20 -12z"/>
<path d="M5800 2983 c0 -12 28 -38 34 -32 2 2 -5 13 -15 23 -11 11 -19 15 -19
9z"/>
<path d="M5780 2904 c0 -5 7 -18 15 -28 8 -11 15 -16 15 -10 0 5 -7 18 -15 28
-8 11 -15 16 -15 10z"/>
<path d="M5675 1600 c-3 -4 12 -11 33 -14 43 -8 170 -48 224 -70 68 -29 69
-31 67 -200 0 -83 -5 -159 -10 -168 -18 -34 -191 -71 -464 -99 -162 -17 -878
-17 -1050 0 -243 23 -443 64 -462 94 -5 7 -11 50 -14 97 l-6 85 1 -95 1 -95
45 -22 c144 -71 705 -114 1217 -93 380 15 600 45 701 92 l47 23 3 172 c2 166
2 172 -20 192 -41 39 -300 122 -313 101z"/>
<path d="M4370 1533 c-81 -12 -90 -15 -84 -25 6 -10 148 -3 180 9 46 17 -18
28 -96 16z"/>
<path d="M5630 1510 c0 -18 6 -20 60 -20 33 0 60 2 60 5 0 8 -38 21 -82 29
-34 6 -38 5 -38 -14z"/>
<path d="M4580 1410 c-24 -15 15 -25 95 -25 77 1 125 10 125 25 0 13 -200 13
-220 0z"/>
<path d="M4301 241 c-22 -14 -27 -115 -7 -146 25 -38 36 -30 15 12 -23 45 -24
63 -5 108 8 19 14 35 13 35 -1 0 -8 -4 -16 -9z"/>
<path d="M4501 213 c24 -47 24 -60 0 -106 -11 -22 -15 -37 -8 -34 18 6 37 48
37 85 0 35 -24 92 -39 92 -5 0 0 -17 10 -37z"/>
<path d="M4360 155 l0 -75 46 0 c25 0 43 4 39 9 -3 5 -19 8 -35 6 l-30 -4 0
59 0 60 35 0 c19 0 35 5 35 10 0 6 -20 10 -45 10 l-45 0 0 -75z"/>
<path d="M4575 223 c11 -2 30 -6 43 -9 24 -5 30 -29 10 -36 -7 -3 -25 -4 -40
-4 -27 2 -28 0 -28 -46 l0 -48 48 1 47 2 -40 6 c-36 5 -40 9 -43 38 -3 30 -1
32 35 35 35 3 38 6 41 36 l3 32 -48 -1 c-26 -1 -39 -3 -28 -6z"/>
<path d="M4680 155 l0 -75 45 0 45 0 0 75 0 75 -45 0 -45 0 0 -75z m68 56 c9
-5 12 -25 10 -62 -3 -53 -4 -54 -33 -54 -29 0 -30 1 -33 57 -3 57 -2 59 38 67
3 0 11 -3 18 -8z"/>
<path d="M4803 216 c13 -10 17 -28 17 -75 0 -34 4 -61 10 -61 6 0 10 32 10 75
l0 75 -27 0 c-25 -1 -26 -2 -10 -14z"/>
<path d="M4870 195 c0 -33 2 -35 36 -35 34 0 35 -1 32 -32 -3 -29 -7 -34 -38
-40 -32 -6 -31 -6 10 -5 l45 2 3 73 3 72 -46 0 c-45 0 -45 0 -45 -35z m70 -1
c0 -9 -11 -14 -30 -14 -36 0 -42 27 -7 32 28 5 37 1 37 -18z"/>
<path d="M5040 155 l0 -75 47 0 c51 0 54 11 4 12 l-31 1 0 59 0 58 35 0 c19 0
35 5 35 10 0 6 -20 10 -45 10 l-45 0 0 -75z"/>
<path d="M5163 155 c0 -44 2 -61 4 -37 4 41 5 42 39 42 33 0 34 -1 34 -42 0
-23 2 -39 4 -37 8 9 12 140 4 145 -4 3 -8 -6 -8 -20 0 -23 -4 -26 -34 -26 -30
0 -35 4 -39 28 -2 15 -4 -9 -4 -53z"/>
<path d="M5281 155 c0 -42 4 -75 9 -75 6 0 10 18 10 40 0 38 2 40 30 40 26 0
30 -4 30 -27 0 -16 5 -35 10 -43 7 -10 10 9 10 63 l0 77 -49 0 -50 0 0 -75z
m79 40 c0 -10 -10 -15 -30 -15 -20 0 -30 5 -30 15 0 10 10 15 30 15 20 0 30
-5 30 -15z"/>
<path d="M5410 153 c0 -42 3 -74 6 -70 3 3 6 22 6 41 0 49 24 47 44 -4 9 -22
20 -40 25 -40 12 0 11 11 -6 40 -18 32 -18 40 0 40 10 0 15 11 15 35 0 35 0
35 -45 35 l-45 0 0 -77z m71 42 c0 -5 -12 -11 -26 -13 -18 -2 -25 1 -25 13 0
12 7 15 25 13 14 -2 26 -7 26 -13z"/>
<path d="M5530 153 c0 -54 3 -73 10 -63 5 8 10 27 10 43 0 23 4 27 30 27 28 0
30 -2 30 -40 0 -22 5 -40 10 -40 6 0 10 32 10 75 l0 75 -50 0 -50 0 0 -77z
m80 42 c0 -10 -10 -15 -30 -15 -20 0 -30 5 -30 15 0 10 10 15 30 15 20 0 30
-5 30 -15z"/>
<path d="M5650 220 c0 -5 7 -10 15 -10 12 0 15 -14 15 -65 0 -37 4 -65 10 -65
6 0 10 28 10 65 0 51 3 65 15 65 8 0 15 5 15 10 0 6 -18 10 -40 10 -22 0 -40
-4 -40 -10z"/> -->
</g>
</svg>
